<svg width="157" height="16" viewBox="0 0 157 16" fill="none" xmlns="http://www.w3.org/2000/svg">
<path d="M11.6759 6.28H7.43594V7.52C7.43594 8.17333 7.38927 8.90667 7.29594 9.72C7.21594 10.5333 7.01594 11.3133 6.69594 12.06C6.38927 12.8067 5.9226 13.4667 5.29594 14.04C4.6826 14.6133 3.83594 14.9933 2.75594 15.18L2.23594 12.78C2.92927 12.78 3.47594 12.6067 3.87594 12.26C4.27594 11.9 4.57594 11.4533 4.77594 10.92C4.97594 10.3867 5.09594 9.82 5.13594 9.22C5.18927 8.60667 5.21594 8.04 5.21594 7.52V6.28H0.975938V3.9H5.21594V0.339999H7.43594V3.9H11.6759V6.28ZM10.423 13.78L16.223 1.04L18.263 2L13.563 12.2L19.323 10.64L17.663 6.9L19.743 5.96L23.583 14.44L21.523 15.38L20.323 12.82L11.283 15.12L10.423 13.78ZM28.0402 0.919999C27.9468 1.36 27.8402 1.8 27.7202 2.24C27.6135 2.68 27.4935 3.11333 27.3602 3.54L35.3802 2.4L35.7402 4.78L32.7602 5.18C32.8668 5.95333 32.9335 6.58667 32.9602 7.08C33.0002 7.56 33.0202 7.98 33.0202 8.34C33.0202 9.32667 32.9002 10.22 32.6602 11.02C32.4202 11.82 32.1002 12.5267 31.7002 13.14C31.3135 13.7533 30.8668 14.2733 30.3602 14.7C29.8535 15.1133 29.3268 15.4267 28.7802 15.64L27.6002 13.6C28.5602 13.2133 29.3335 12.5867 29.9202 11.72C30.5202 10.84 30.8202 9.72667 30.8202 8.38C30.8202 8.07333 30.8002 7.70667 30.7602 7.28C30.7202 6.84 30.6468 6.25333 30.5402 5.52L26.4802 6.06C26.0135 7.20667 25.4935 8.3 24.9202 9.34L22.9202 8.38C23.2535 7.74 23.5602 7.10667 23.8402 6.48C24.1335 5.85333 24.4002 5.21333 24.6402 4.56C24.8935 3.90667 25.1202 3.24 25.3202 2.56C25.5202 1.86667 25.7002 1.14667 25.8602 0.4L28.0402 0.919999ZM36.38 13.78L42.18 1.04L44.22 2L39.52 12.2L45.28 10.64L43.62 6.9L45.7 5.96L49.54 14.44L47.48 15.38L46.28 12.82L37.24 15.12L36.38 13.78ZM62.0081 8.76V10.66C62.0081 11.38 61.9415 12.0133 61.8081 12.56C61.6748 13.0933 61.4548 13.54 61.1481 13.9C60.8415 14.26 60.4415 14.5333 59.9481 14.72C59.4548 14.9067 58.8548 15 58.1481 15H51.1081V12.62H58.1081C58.7748 12.62 59.2215 12.46 59.4481 12.14C59.6748 11.82 59.7881 11.3267 59.7881 10.66V8.76H54.6281C53.7215 8.76 53.0281 8.50667 52.5481 8C52.0815 7.48 51.8481 6.74 51.8481 5.78V4.04H50.5081V1.66H62.0881V4.04H54.0681V5.78C54.0681 5.98 54.1015 6.12667 54.1681 6.22C54.2481 6.31333 54.4015 6.36 54.6281 6.36H62.6881V8.76H62.0081ZM68.6056 5.84H77.0256V8.22H76.1456V10.66C76.1456 11.38 76.079 12.0133 75.9456 12.56C75.8123 13.0933 75.5923 13.54 75.2856 13.9C74.979 14.26 74.579 14.5333 74.0856 14.72C73.5923 14.9067 72.9923 15 72.2856 15H71.9456L71.3856 12.62H72.2456C72.899 12.62 73.339 12.46 73.5656 12.14C73.8056 11.82 73.9256 11.3267 73.9256 10.66V8.22H68.6056V10.38C68.6056 11.2333 68.499 12.0867 68.2856 12.94C68.0856 13.7933 67.779 14.6 67.3656 15.36L65.3056 14.36C65.6923 13.7333 65.9656 13.1 66.1256 12.46C66.299 11.8067 66.3856 11.12 66.3856 10.4V8.22H63.8456V5.84H66.3856V0.96H68.6056V5.84ZM78.4669 1.66H87.6469V4.04H84.1669V12.62H88.8669V15H77.2469V12.62H81.9269V4.04H78.4669V1.66ZM91.3966 1.66H100.577V4.04H97.0966V12.62H101.797V15H90.1766V12.62H94.8566V4.04H91.3966V1.66ZM105.646 13.98H103.426V2.14H108.566V0.339999H110.706V2.14H116.426V4.54H115.846V10.44C115.846 10.8933 115.8 11.34 115.706 11.78C115.626 12.22 115.473 12.62 115.246 12.98C115.033 13.34 114.733 13.6467 114.346 13.9C113.973 14.14 113.5 14.3 112.926 14.38L112.366 12C112.806 11.9333 113.126 11.7733 113.326 11.52C113.526 11.2667 113.626 10.9067 113.626 10.44V4.54H110.706V15.96H108.566V4.54H105.646V13.98ZM126.362 11.66V1.66H128.582V15H126.362V14.04H120.002V15H117.782V1.66H120.002V11.66H126.362ZM129.994 1.98H131.874V0.339999H134.114V1.98H142.154L142.534 4.14C141.467 5.12667 140.347 6.02 139.174 6.82C138 7.60667 136.847 8.3 135.714 8.9L134.554 6.88C135.34 6.52 136.067 6.13333 136.734 5.72C137.414 5.30667 138.08 4.85333 138.734 4.36H134.114V15H131.874V4.36H129.994V1.98ZM138.054 8.74C139.547 10.3933 140.954 12.2 142.274 14.16L140.434 15.6C139.807 14.6267 139.134 13.6867 138.414 12.78C137.707 11.8733 136.974 11.0067 136.214 10.18L138.054 8.74ZM143.216 13.78L149.016 1.04L151.056 2L146.356 12.2L152.116 10.64L150.456 6.9L152.536 5.96L156.376 14.44L154.316 15.38L153.116 12.82L144.076 15.12L143.216 13.78Z" fill="#001219"/>
</svg>
